<svg width="101" height="101" viewBox="0 0 101 101" fill="none" xmlns="http://www.w3.org/2000/svg">
<path d="M87.8411 20.6542C89.0046 19.7242 90.7083 19.9098 91.5749 21.1213C98.1498 30.3133 101.467 41.4714 100.947 52.8128C100.386 65.0545 95.3923 76.6745 86.8974 85.5069C78.4024 94.3393 66.9856 99.7813 54.775 100.819C42.5645 101.856 30.3932 98.4181 20.53 91.1454C10.6668 83.8727 3.78459 73.2617 1.16621 61.2901C-1.45218 49.3185 0.371913 36.8033 6.29849 26.0771C12.2251 15.351 21.8497 7.14581 33.3785 2.99102C44.0594 -0.858225 55.6994 -0.987593 66.4242 2.57637C67.8377 3.0461 68.5186 4.61882 67.9741 6.00526C67.4296 7.39169 65.8661 8.06592 64.4496 7.60523C54.9463 4.51442 44.6566 4.66019 35.2073 8.06557C24.9099 11.7766 16.3133 19.1053 11.0198 28.6858C5.72622 38.2663 4.09696 49.4447 6.43567 60.1376C8.77438 70.8305 14.9215 80.3081 23.7312 86.804C32.5409 93.2998 43.4121 96.3707 54.3184 95.4441C65.2248 94.5175 75.4221 89.6567 83.0097 81.7677C90.5972 73.8788 95.0574 63.4999 95.5586 52.5658C96.0187 42.5321 93.1163 32.6591 87.3544 24.4941C86.4956 23.2771 86.6775 21.5842 87.8411 20.6542Z" fill="white"/>
<path d="M39.5215 75.75V28.2774C39.5215 27.2957 39.5215 26.8048 39.7259 26.5363C39.9039 26.3025 40.1757 26.1589 40.4692 26.1435C40.8061 26.1259 41.2117 26.4024 42.0229 26.9555L73.6108 48.4927C74.319 48.9756 74.6732 49.217 74.7847 49.5116C74.8822 49.7689 74.8693 50.0549 74.7493 50.3023C74.6118 50.5858 74.2374 50.7945 73.4888 51.212L47.2063 65.8696" stroke="white" stroke-width="3.5"/>
</svg>
